<?xml version="1.0"?>
<svg version="1.1" xmlns="http://www.w3.org/2000/svg" width="400px" height="200px" ><path fill="#" d="M164.15,124.84l0,19.26s-9.54,5.4-22.95,5.4c-18,0-28.8-10.8-28.8-31.05c0-20.7,11.7-33.75,30.15-33.75c9.9,0,20.25,4.5,20.25,4.5l-0.45,14.85l-5.85,0l-2.7-9.9s-5.4-1.8-12.15-1.8c-12.15,0-18.9,9-18.9,25.65c0,16.2,8.1,23.85,19.8,23.85c6.3,0,12.6-2.25,12.6-2.25l0-14.76l-7.65-1.8l0-4.95l23.4-0.45l0,5.4z M199.394,106.84l6.93,11.61l10.8-17.1l13.05-0.45l0,5.4l-7.65,1.35l-11.25,16.65l11.52,17.28l8.28,2.07l0,4.95l-21.96,0l0-4.95l3.6-1.08l-7.38-11.88l-11.16,17.91l-13.05,0l0-4.95l7.92-2.07l11.43-16.83l-11.52-17.19l-6.93-1.26l0-4.95l20.52-0.45l0,5.4z M249.398,141.4l0-48.6l-7.65-1.8l0-4.95l17.1-0.45l11.25,0c17.55,0,28.35,10.8,28.35,30.6s-11.7,32.4-29.7,32.4l-27,0l0-5.4z M258.848,141.4l10.35,0c11.25,0,18.9-7.65,18.9-24.75c0-16.65-7.2-23.85-18.45-23.85l-10.8,0l0,48.6z"/><path fill="#" d=""/></svg>
